<?xml version="1.0" encoding="utf-8"?>
<!-- Generator: Adobe Illustrator 24.0.1, SVG Export Plug-In . SVG Version: 6.00 Build 0)  -->
<svg version="1.1" id="Layer_1" xmlns="http://www.w3.org/2000/svg" xmlns:xlink="http://www.w3.org/1999/xlink" x="0px" y="0px"
	 width="262.86px" height="80.53px" viewBox="0 0 262.86 80.53" enable-background="new 0 0 262.86 80.53" xml:space="preserve">
<g>
	<path fill="#FFFFFF" d="M40.27,6.62c18.55,0,33.65,15.09,33.65,33.65c0,18.55-15.09,33.65-33.65,33.65
		c-18.55,0-33.65-15.09-33.65-33.65C6.62,21.71,21.71,6.62,40.27,6.62 M40.27,0C18.03,0,0,18.03,0,40.27s18.03,40.27,40.27,40.27
		c22.24,0,40.27-18.03,40.27-40.27S62.51,0,40.27,0L40.27,0z"/>
	<g>
		<path fill="#FFFFFF" d="M16.34,26.76h22.87v6.94H24.26v4.86h13.52v6.58H24.26v10.21h-7.92V26.76z"/>
		<path fill="#FFFFFF" d="M40.81,26.76h13.52c4.37,0,7.39,1.14,9.31,3.06c1.67,1.67,2.53,3.84,2.53,6.66v0.08
			c0,4.41-2.33,7.31-5.88,8.82l6.82,9.97H58l-5.76-8.66h-3.51v8.66h-7.92V26.76z M54,40.49c2.66,0,4.25-1.31,4.25-3.39v-0.08
			c0-2.29-1.67-3.43-4.29-3.43h-5.23v6.9H54z"/>
	</g>
</g>
<g>
	<path fill="#FFFFFF" d="M96.1,28h12.4v1.21H97.4v7.22h9.96v1.21H97.4v7.97H96.1V28z"/>
	<path fill="#FFFFFF" d="M111.07,38.29V28h1.31v10.17c0,4.15,2.24,6.54,5.96,6.54c3.57,0,5.86-2.16,5.86-6.42V28h1.31v10.14
		c0,5.06-2.94,7.75-7.22,7.75C114.06,45.89,111.07,43.23,111.07,38.29z"/>
	<path fill="#FFFFFF" d="M129.22,28h1.23l12.15,15.32V28h1.26v17.61h-0.98l-12.4-15.65v15.65h-1.26V28z"/>
	<path fill="#FFFFFF" d="M147.84,28h5.86c5.53,0,9.36,3.8,9.36,8.76v0.05c0,4.96-3.82,8.81-9.36,8.81h-5.86V28z M153.7,44.41
		c4.91,0,8-3.35,8-7.55v-0.05c0-4.18-3.09-7.6-8-7.6h-4.56v15.2H153.7z"/>
	<path fill="#FFFFFF" d="M166.26,28h7.4c2.16,0,3.9,0.68,4.96,1.74c0.83,0.83,1.33,2.01,1.33,3.27v0.05c0,2.94-2.19,4.63-5.16,5.03
		l5.81,7.52h-1.66l-5.61-7.3h-5.76v7.3h-1.31V28z M173.51,37.14c2.95,0,5.13-1.48,5.13-4.03v-0.05c0-2.37-1.86-3.85-5.06-3.85h-6.01
		v7.93H173.51z"/>
	<path fill="#FFFFFF" d="M189.89,27.88h1.26l8.2,17.74h-1.43l-2.24-4.93h-10.39l-2.24,4.93h-1.36L189.89,27.88z M195.12,39.5
		l-4.63-10.19l-4.65,10.19H195.12z"/>
	<path fill="#FFFFFF" d="M202,28h1.31v17.61H202V28z"/>
	<path fill="#FFFFFF" d="M206.33,43.05l0.86-0.98c1.94,1.79,3.72,2.62,6.32,2.62c2.64,0,4.45-1.48,4.45-3.5v-0.05
		c0-1.86-0.98-2.94-4.98-3.75c-4.23-0.86-5.94-2.29-5.94-4.96v-0.05c0-2.62,2.39-4.63,5.66-4.63c2.57,0,4.25,0.71,6.04,2.14
		l-0.83,1.03c-1.66-1.44-3.32-1.99-5.26-1.99c-2.59,0-4.3,1.48-4.3,3.32v0.05c0,1.86,0.96,2.99,5.13,3.85
		c4.08,0.83,5.79,2.29,5.79,4.85v0.05c0,2.84-2.44,4.81-5.84,4.81C210.6,45.87,208.44,44.94,206.33,43.05z"/>
	<path fill="#FFFFFF" d="M222.48,28h1.31v17.61h-1.31V28z"/>
	<path fill="#FFFFFF" d="M227.94,28h1.23l12.15,15.32V28h1.26v17.61h-0.98l-12.4-15.65v15.65h-1.26V28z"/>
	<path fill="#FFFFFF" d="M245.79,36.86v-0.05c0-4.75,3.45-9.11,8.71-9.11c2.87,0,4.68,0.86,6.44,2.31L260.08,31
		c-1.38-1.21-2.99-2.11-5.66-2.11c-4.28,0-7.27,3.62-7.27,7.88v0.05c0,4.56,2.84,7.95,7.55,7.95c2.24,0,4.33-0.93,5.61-2.01v-5.06
		h-5.89v-1.21h7.15v6.79c-1.58,1.41-4.05,2.64-6.92,2.64C249.08,45.92,245.79,41.82,245.79,36.86z"/>
	<path fill="#FFFFFF" d="M95.85,50.04h9.02c2.51,0,4.46,0.7,5.75,2c1.1,1.1,1.69,2.65,1.69,4.51v0.06c0,3.19-1.72,5.19-4.23,6.12
		l4.82,7.05h-5.08l-4.23-6.32h-3.41v6.32h-4.34V50.04z M104.59,59.63c2.11,0,3.33-1.13,3.33-2.79v-0.06c0-1.86-1.3-2.82-3.41-2.82
		h-4.31v5.67H104.59z"/>
	<path fill="#FFFFFF" d="M114.82,50.04h14.89v3.86h-10.58v4.01h9.31v3.86h-9.31v4.14h10.72v3.86h-15.03V50.04z"/>
	<path fill="#FFFFFF" d="M131.42,59.96v-0.06c0-5.61,4.37-10.21,10.35-10.21c3.55,0,5.7,0.96,7.76,2.71l-2.73,3.3
		c-1.52-1.27-2.88-2-5.16-2c-3.16,0-5.67,2.79-5.67,6.15v0.06c0,3.61,2.48,6.26,5.98,6.26c1.58,0,2.99-0.4,4.09-1.18v-2.82h-4.37
		v-3.75h8.57v8.57c-2.03,1.72-4.82,3.13-8.43,3.13C135.65,70.12,131.42,65.8,131.42,59.96z"/>
	<path fill="#FFFFFF" d="M152.67,61.32V50.04h4.34V61.2c0,3.21,1.61,4.88,4.26,4.88c2.65,0,4.26-1.61,4.26-4.74V50.04h4.34v11.14
		c0,5.98-3.36,8.91-8.66,8.91C155.92,70.09,152.67,67.13,152.67,61.32z"/>
	<path fill="#FFFFFF" d="M172.88,50.04h4.34v15.79h9.84v3.95h-14.19V50.04z"/>
	<path fill="#FFFFFF" d="M195.69,49.9h4.01l8.46,19.88h-4.54l-1.8-4.43h-8.35l-1.8,4.43h-4.43L195.69,49.9z M200.26,61.52l-2.62-6.4
		l-2.62,6.4H200.26z"/>
	<path fill="#FFFFFF" d="M211.84,54.04h-6.01v-4h16.36v4h-6.01v15.74h-4.34V54.04z"/>
	<path fill="#FFFFFF" d="M222.38,59.96v-0.06c0-5.61,4.43-10.21,10.52-10.21c6.09,0,10.46,4.54,10.46,10.15v0.06
		c0,5.61-4.43,10.21-10.52,10.21S222.38,65.58,222.38,59.96z M238.82,59.96v-0.06c0-3.38-2.48-6.21-5.98-6.21
		c-3.5,0-5.92,2.76-5.92,6.15v0.06c0,3.38,2.48,6.21,5.98,6.21C236.39,66.11,238.82,63.35,238.82,59.96z"/>
	<path fill="#FFFFFF" d="M245.8,50.04h9.02c2.51,0,4.46,0.7,5.75,2c1.1,1.1,1.69,2.65,1.69,4.51v0.06c0,3.19-1.72,5.19-4.23,6.12
		l4.82,7.05h-5.08l-4.23-6.32h-3.41v6.32h-4.34V50.04z M254.54,59.63c2.12,0,3.33-1.13,3.33-2.79v-0.06c0-1.86-1.3-2.82-3.41-2.82
		h-4.31v5.67H254.54z"/>
	<g>
		<path fill="#FFFFFF" d="M96.06,8.55h4.69c1.32,0,2.36,0.39,3.04,1.05c0.56,0.57,0.87,1.35,0.87,2.27v0.03
			c0,1.73-1.04,2.77-2.5,3.19l2.84,3.99h-2.2l-2.59-3.67h-2.32v3.67h-1.85V8.55z M100.61,13.77c1.32,0,2.17-0.69,2.17-1.76v-0.03
			c0-1.13-0.81-1.74-2.18-1.74h-2.69v3.53H100.61z"/>
		<path fill="#FFFFFF" d="M106.16,15.14v-0.03c0-2.27,1.61-4.14,3.88-4.14c2.53,0,3.8,1.99,3.8,4.27c0,0.16-0.02,0.33-0.03,0.51
			h-5.84c0.2,1.29,1.11,2.02,2.29,2.02c0.89,0,1.52-0.33,2.15-0.95l1.07,0.95c-0.75,0.9-1.79,1.49-3.25,1.49
			C107.94,19.26,106.16,17.59,106.16,15.14z M112.04,14.55c-0.12-1.17-0.81-2.09-2.02-2.09c-1.11,0-1.9,0.86-2.06,2.09H112.04z"/>
		<path fill="#FFFFFF" d="M115.64,20.57l0.68-1.37c0.86,0.53,1.74,0.84,2.83,0.84c1.62,0,2.51-0.84,2.51-2.44v-0.62
			c-0.66,0.86-1.49,1.46-2.8,1.46c-1.87,0-3.61-1.38-3.61-3.72V14.7c0-2.35,1.76-3.73,3.61-3.73c1.34,0,2.17,0.62,2.78,1.35v-1.19
			h1.82v6.32c0,1.34-0.35,2.33-1.01,2.99c-0.72,0.72-1.83,1.07-3.26,1.07C117.89,21.52,116.67,21.18,115.64,20.57z M121.68,14.72
			v-0.03c0-1.29-1.07-2.18-2.33-2.18c-1.26,0-2.26,0.87-2.26,2.18v0.03c0,1.29,1.01,2.18,2.26,2.18
			C120.61,16.9,121.68,16.01,121.68,14.72z"/>
		<path fill="#FFFFFF" d="M125.76,8.19h1.96v1.73h-1.96V8.19z M125.83,11.14h1.82v7.94h-1.82V11.14z"/>
		<path fill="#FFFFFF" d="M129.33,18.04l0.81-1.23c0.87,0.65,1.79,0.98,2.6,0.98c0.78,0,1.23-0.33,1.23-0.86V16.9
			c0-0.62-0.84-0.83-1.77-1.11c-1.17-0.33-2.48-0.81-2.48-2.33v-0.03c0-1.5,1.25-2.42,2.83-2.42c0.99,0,2.08,0.35,2.92,0.9
			l-0.72,1.29c-0.77-0.47-1.58-0.75-2.24-0.75c-0.71,0-1.11,0.33-1.11,0.78v0.03c0,0.59,0.86,0.83,1.79,1.13
			c1.16,0.36,2.47,0.89,2.47,2.32v0.03c0,1.67-1.29,2.5-2.95,2.5C131.58,19.23,130.33,18.82,129.33,18.04z"/>
		<path fill="#FFFFFF" d="M137.88,16.88V12.7h-1.01v-1.56h1.01V8.96h1.82v2.18h2.14v1.56h-2.14v3.9c0,0.71,0.36,0.99,0.98,0.99
			c0.41,0,0.77-0.09,1.13-0.27v1.49c-0.45,0.26-0.95,0.41-1.64,0.41C138.83,19.21,137.88,18.63,137.88,16.88z"/>
		<path fill="#FFFFFF" d="M143.02,15.14v-0.03c0-2.27,1.61-4.14,3.88-4.14c2.53,0,3.8,1.99,3.8,4.27c0,0.16-0.02,0.33-0.03,0.51
			h-5.84c0.2,1.29,1.11,2.02,2.29,2.02c0.89,0,1.52-0.33,2.15-0.95l1.07,0.95c-0.75,0.9-1.79,1.49-3.25,1.49
			C144.79,19.26,143.02,17.59,143.02,15.14z M148.9,14.55c-0.12-1.17-0.81-2.09-2.02-2.09c-1.11,0-1.9,0.86-2.06,2.09H148.9z"/>
		<path fill="#FFFFFF" d="M152.57,11.14h1.82v1.79c0.5-1.19,1.41-2,2.81-1.94v1.93h-0.11c-1.59,0-2.71,1.04-2.71,3.14v3.02h-1.82
			V11.14z"/>
		<path fill="#FFFFFF" d="M158.22,15.14v-0.03c0-2.27,1.61-4.14,3.88-4.14c2.53,0,3.8,1.99,3.8,4.27c0,0.16-0.02,0.33-0.03,0.51
			h-5.84c0.2,1.29,1.11,2.02,2.29,2.02c0.89,0,1.52-0.33,2.15-0.95l1.07,0.95c-0.75,0.9-1.79,1.49-3.25,1.49
			C160,19.26,158.22,17.59,158.22,15.14z M164.1,14.55c-0.12-1.17-0.81-2.09-2.02-2.09c-1.11,0-1.9,0.86-2.06,2.09H164.1z"/>
		<path fill="#FFFFFF" d="M167.35,15.12v-0.03c0-2.63,1.79-4.12,3.68-4.12c1.31,0,2.14,0.65,2.71,1.4V8.1h1.82v10.98h-1.82v-1.32
			c-0.59,0.83-1.41,1.49-2.71,1.49C169.17,19.24,167.35,17.76,167.35,15.12z M173.77,15.12v-0.03c0-1.53-1.08-2.54-2.3-2.54
			c-1.25,0-2.29,0.96-2.29,2.54v0.03c0,1.53,1.05,2.54,2.29,2.54C172.69,17.67,173.77,16.64,173.77,15.12z"/>
		<path fill="#FFFFFF" d="M181.7,11.14h1.87l1.59,5.44l1.76-5.47h1.56l1.76,5.47l1.62-5.44h1.84l-2.6,8h-1.64l-1.77-5.43l-1.79,5.43
			h-1.62L181.7,11.14z"/>
		<path fill="#FFFFFF" d="M195.19,8.19h1.96v1.73h-1.96V8.19z M195.27,11.14h1.82v7.94h-1.82V11.14z"/>
		<path fill="#FFFFFF" d="M199.75,16.88V12.7h-1.01v-1.56h1.01V8.96h1.82v2.18h2.14v1.56h-2.14v3.9c0,0.71,0.36,0.99,0.98,0.99
			c0.41,0,0.77-0.09,1.13-0.27v1.49c-0.45,0.26-0.95,0.41-1.64,0.41C200.69,19.21,199.75,18.63,199.75,16.88z"/>
		<path fill="#FFFFFF" d="M205.54,8.1h1.82v4.26c0.51-0.74,1.25-1.38,2.48-1.38c1.79,0,2.83,1.2,2.83,3.04v5.07h-1.82v-4.51
			c0-1.23-0.62-1.94-1.7-1.94c-1.05,0-1.79,0.74-1.79,1.97v4.48h-1.82V8.1z"/>
	</g>
</g>
<g>
</g>
<g>
</g>
<g>
</g>
<g>
</g>
<g>
</g>
<g>
</g>
</svg>
